<svg xmlns="http://www.w3.org/2000/svg" viewBox="0 0 1386.02 261"><defs><style>.\39 5cd1ecf-ae76-4a09-8a7e-025e26287530{isolation:isolate;}.\37 74a9d9d-7ce5-4567-8ca9-a6a57b378022{fill:#598392;}</style></defs><title>logo</title><g id="800e4333-ddb8-4c59-a45e-ecea7bba94e8" data-name="BookSwitch" class="95cd1ecf-ae76-4a09-8a7e-025e26287530"><g id="01a1a260-2fde-4e31-8e0c-6f6474dfada8" data-name="BookSwitch"><path class="774a9d9d-7ce5-4567-8ca9-a6a57b378022" d="M155.49,211.34a159.31,159.31,0,0,0,23.91-32.85q3.62-6.49,7-12.72t7-12.46q12.15-21.81,24.56-43.88a243.76,243.76,0,0,1,28.69-40.77,128.71,128.71,0,0,1,9.44-10,71,71,0,0,1,10.73-8.44A21.56,21.56,0,0,1,271,48.14a8.67,8.67,0,0,0,3.75-2.6q2.58-3.12,1.68-4.8A5.11,5.11,0,0,0,273,38.4a20.67,20.67,0,0,0-5.82-.52q-3.24.13-5,.39a55.25,55.25,0,0,0-16.8,5.32q-8,4-15.51,8.44a95.58,95.58,0,0,0-17.58,13.63Q204.48,73.33,197,82.15a202.91,202.91,0,0,0-14.35,19Q176,111,170.09,121.37q-8.28,13.5-16.29,26.88t-16,27.14q-4.65,8.05-9.82,16.49t-11.12,16.36a163,163,0,0,1-12.67,14.93,92.49,92.49,0,0,1-14.74,12.46,66.29,66.29,0,0,1-31.28,11.94q-4.4.52-8.66,0.65a42,42,0,0,1-8.66-.65A23.59,23.59,0,0,1,34,244.84q-4-2.2-5.3-5.06A6,6,0,0,1,30,233.28a45.38,45.38,0,0,0,4.14-5.19,10,10,0,0,0,2.07-6,38.16,38.16,0,0,0-.52-6.23,18.66,18.66,0,0,0-6.85-10.13,15.43,15.43,0,0,0-11.76-3.38Q8,203.42,4,209.91a27.34,27.34,0,0,0-4,14.67,38.34,38.34,0,0,0,3.62,16.1q3.62,7.92,9.82,11.3A48.75,48.75,0,0,0,27,257.17a100.35,100.35,0,0,0,14.61,2.08q4.13,0.26,8.27.13t8.27-.65A194.66,194.66,0,0,0,92.41,252a122.23,122.23,0,0,0,31.93-14.54A172.66,172.66,0,0,0,155.49,211.34ZM294.18,117a63.36,63.36,0,0,0,12.93-11,46.58,46.58,0,0,0,8.79-14.41,71.65,71.65,0,0,0,5.3-31.29A50.46,50.46,0,0,0,309.69,31a61.76,61.76,0,0,0-12.8-12.33,78.79,78.79,0,0,0-15.12-8.44A98.89,98.89,0,0,0,265.1,4.9q-8.66-1.95-17.19-3A35.48,35.48,0,0,0,243,1.27a14.15,14.15,0,0,1-3.1-.39A74.62,74.62,0,0,0,222.83.23q-8.79.65-17.06,1.95Q190.26,4.77,175,8.54a183.45,183.45,0,0,0-30,10.26,125,125,0,0,0-14.48,7.14q-7,4-13.7,8.18a104.17,104.17,0,0,0-15,11q-7.24,6.37-14,12.33a76,76,0,0,0-12.28,14,137.21,137.21,0,0,0-9.44,16.1A103.85,103.85,0,0,0,59.45,106a74.72,74.72,0,0,0-2.33,14.28,64.6,64.6,0,0,0,.52,14.28,36.28,36.28,0,0,0,12,21.94,37.52,37.52,0,0,0,23.14,9.22,46.61,46.61,0,0,0,14-1,64.9,64.9,0,0,0,13.05-4.54,100.89,100.89,0,0,0,12.28-6.88q5.94-3.9,11.63-7.79,2.84-2.08,6.59-5.19a10.12,10.12,0,0,0,4-7.27q0-4.67-3.1-4.41a11.41,11.41,0,0,0-5.69,2.08q-5.43,3.64-11.89,7.92a67.1,67.1,0,0,1-13.31,6.88,31.49,31.49,0,0,1-13.7,2.08q-6.85-.52-13.05-6.23a20.37,20.37,0,0,1-6.2-13.24A70,70,0,0,1,92,94.62a76.42,76.42,0,0,1,9.31-16.88,153.34,153.34,0,0,1,26.89-29.47,130.25,130.25,0,0,1,33.86-20.64,173.63,173.63,0,0,1,20.68-7.53,183.54,183.54,0,0,1,21.46-4.93,220.63,220.63,0,0,1,26.5-2.6A78.47,78.47,0,0,1,257,15.94a49.08,49.08,0,0,1,17.84,10.13A44.3,44.3,0,0,1,286,41.52a46.8,46.8,0,0,1,3.75,18.7,46.18,46.18,0,0,1-4.65,19.86q-2.07,4.42-4.52,8.83a41.71,41.71,0,0,1-5.82,8,68.37,68.37,0,0,1-28.69,20.38,125,125,0,0,1-34.38,7.4,3.68,3.68,0,0,0-3.1,2.08q-4.4,7.27,5.43,8a79.47,79.47,0,0,1,16.67,4,27.19,27.19,0,0,1,13.57,10.52,37.7,37.7,0,0,1,6.59,17.14,59.34,59.34,0,0,1-.65,18.7,74,74,0,0,1-6.08,18.18,99.7,99.7,0,0,1-9.44,15.84,70.27,70.27,0,0,1-13.57,13.11,64.19,64.19,0,0,1-17.45,9.35,48.67,48.67,0,0,1-18.87,2.73,30.82,30.82,0,0,1-17.58-6.75,36.09,36.09,0,0,1-5.17-5.19,31.18,31.18,0,0,1-4.14-6q-2.33-4.67-6.72-3.9a4.68,4.68,0,0,0-3.1,3.25,6.37,6.37,0,0,0,.26,5.32,9.07,9.07,0,0,1,.9,1.82,20.6,20.6,0,0,0,.9,2.08q1.81,4.67,7.11,9a71,71,0,0,0,9.44,6.62,60.28,60.28,0,0,0,11.76,4.93q6.07,1.82,12.28,3.12a34.22,34.22,0,0,0,4.91.65q2.33,0.13,4.65.39a89,89,0,0,0,25.2-2.6,90.69,90.69,0,0,0,23.4-9.35,63.9,63.9,0,0,0,16-13.76,68.51,68.51,0,0,0,15.9-34.8,71.87,71.87,0,0,0,.26-19.22,63.4,63.4,0,0,0-5.3-18.7,58.65,58.65,0,0,0-11.37-15.71,95.06,95.06,0,0,0-15-12.07q11.37-2.85,23.14-6.49A83.76,83.76,0,0,0,294.18,117Zm128,42.85a26.68,26.68,0,0,0-4.39-17.66,20.65,20.65,0,0,0-9.82-8.31,40,40,0,0,0-14.22-2.08A52.55,52.55,0,0,0,381,133.83a80.13,80.13,0,0,0-12.15,4.67,100.77,100.77,0,0,0-11.5,6.49q-5.56,3.64-10.47,7.53-8,6.23-16,13.76a116.9,116.9,0,0,0-23.27,31.42,71.91,71.91,0,0,0-6.2,17.66,93.4,93.4,0,0,0-2.07,10.26,52.07,52.07,0,0,0-.52,10.26,21.56,21.56,0,0,0,6.72,14.8,31.67,31.67,0,0,0,14.22,8,22.61,22.61,0,0,0,6.33,1.17,50.44,50.44,0,0,0,6.33-.13,76.57,76.57,0,0,0,23-7,144.58,144.58,0,0,0,20.94-12.2,103.73,103.73,0,0,0,26.37-27.78A121.16,121.16,0,0,0,418.52,178,113.43,113.43,0,0,0,422.14,159.8Zm-22.75-4.93a42.3,42.3,0,0,1-2.33,10.91q-1.81,4.94-3.88,10.39-3.36,7.53-7.11,15.06t-8.14,14.54q-1.81,2.86-3.49,5.71t-3.75,5.71a147.45,147.45,0,0,1-12.8,16.1,48.53,48.53,0,0,1-16.67,11.94,58.44,58.44,0,0,1-5.69,2.08,17,17,0,0,1-5.95,0,7.72,7.72,0,0,1-5.17-2.86q-2.85-3.9-1.68-9.61a57.24,57.24,0,0,1,2.71-9.61q3.1-7.79,6.72-15.45a165.15,165.15,0,0,1,8-14.93q4.91-8.31,10.6-16.36a150.09,150.09,0,0,1,12.41-15.32,72.29,72.29,0,0,1,6.72-6.88q3.62-3.24,7.24-6.88a56.81,56.81,0,0,1,7.5-5.71,10.7,10.7,0,0,1,9-1.56,7.48,7.48,0,0,1,4.78,5.32A21,21,0,0,1,399.39,154.86ZM527.1,178a113.45,113.45,0,0,0,3.62-18.18,26.68,26.68,0,0,0-4.39-17.66,20.64,20.64,0,0,0-9.82-8.31,40,40,0,0,0-14.22-2.08,52.55,52.55,0,0,0-12.67,2.08,80.13,80.13,0,0,0-12.15,4.67A100.76,100.76,0,0,0,466,145q-5.56,3.64-10.47,7.53-8,6.23-16,13.76a116.9,116.9,0,0,0-23.27,31.42,71.91,71.91,0,0,0-6.2,17.66,93.39,93.39,0,0,0-2.07,10.26,52.07,52.07,0,0,0-.52,10.26,21.56,21.56,0,0,0,6.72,14.8,31.67,31.67,0,0,0,14.22,8,22.61,22.61,0,0,0,6.33,1.17,50.44,50.44,0,0,0,6.33-.13,76.57,76.57,0,0,0,23-7A144.57,144.57,0,0,0,485,240.55a103.73,103.73,0,0,0,26.37-27.78A121.16,121.16,0,0,0,527.1,178ZM508,154.86a42.31,42.31,0,0,1-2.33,10.91q-1.81,4.94-3.88,10.39-3.36,7.53-7.11,15.06t-8.14,14.54q-1.81,2.86-3.49,5.71t-3.75,5.71a147.47,147.47,0,0,1-12.8,16.1,48.53,48.53,0,0,1-16.67,11.94,58.45,58.45,0,0,1-5.69,2.08,17,17,0,0,1-5.95,0,7.72,7.72,0,0,1-5.17-2.86q-2.85-3.9-1.68-9.61a57.28,57.28,0,0,1,2.71-9.61q3.1-7.79,6.72-15.45a165.14,165.14,0,0,1,8-14.93q4.91-8.31,10.6-16.36a150.08,150.08,0,0,1,12.41-15.32,72.29,72.29,0,0,1,6.72-6.88q3.62-3.24,7.24-6.88a56.8,56.8,0,0,1,7.5-5.71,10.7,10.7,0,0,1,9-1.56,7.48,7.48,0,0,1,4.78,5.32A21,21,0,0,1,508,154.86Zm330-5.45a229,229,0,0,0-7.37-29.86q-1.81-6-4-11.43T822.31,97q-3.62-9.87-6.72-20a61.29,61.29,0,0,1-2.59-21,53.53,53.53,0,0,1,2.46-13.63A60,60,0,0,1,821,29.44a37.38,37.38,0,0,1,7.24-8.57,34.57,34.57,0,0,1,9.69-6.1,28,28,0,0,1,10.86-2.21,25.28,25.28,0,0,1,11,2.6,20.62,20.62,0,0,1,7.63,6.49,31.73,31.73,0,0,1,4.52,9.22,47,47,0,0,1,1.94,10.39,54.93,54.93,0,0,1-.13,10,54.09,54.09,0,0,1-2.33,11.17,46,46,0,0,1-4.91,10.65,28.81,28.81,0,0,1-7.63,8.18,19.32,19.32,0,0,1-10.73,3.51,18,18,0,0,0-4,.39q-1.68.39-1.42,3.51a4.25,4.25,0,0,0,1.68,3.77A9.63,9.63,0,0,0,848.29,94a16.52,16.52,0,0,0,4.65.13,24.75,24.75,0,0,0,4.27-.78,38.39,38.39,0,0,0,11.37-3.9,40.17,40.17,0,0,0,9.82-7.27,55.27,55.27,0,0,0,9.44-12.33,61.93,61.93,0,0,0,5.56-14.41,61.79,61.79,0,0,0,1.68-15.84,53.11,53.11,0,0,0-2.71-16.23,38,38,0,0,0-7.88-13.5A26.79,26.79,0,0,0,870.4,1.92a5.51,5.51,0,0,0-1.68-.39,6.35,6.35,0,0,1-2.2-.65A35.86,35.86,0,0,0,854.24.23,77.77,77.77,0,0,0,839.38,3a87.94,87.94,0,0,0-11.12,4.41,99.1,99.1,0,0,0-10.34,5.71,66.24,66.24,0,0,0-8.4,6.49q-4,3.64-7.63,7.53a74.26,74.26,0,0,0-10.08,15.45A85.75,85.75,0,0,0,785.48,60a77.06,77.06,0,0,0-2.2,18.44,64.73,64.73,0,0,0,2.59,18.31q2.07,7,4,14t4.27,14q4.39,12.46,9,25.06a74.73,74.73,0,0,1,4.65,26.1,69.1,69.1,0,0,1-2.33,18.18,63.08,63.08,0,0,1-5.95,15.19,97.51,97.51,0,0,1-8.79,13.63,68.11,68.11,0,0,1-6.33,7,93.67,93.67,0,0,1-7.11,6.23,51.59,51.59,0,0,1-14.74,7.53,55.3,55.3,0,0,1-16.29,2.73,58.76,58.76,0,0,1-16.42-2.08A44.53,44.53,0,0,1,715,237.18a109.56,109.56,0,0,1-10.86-8.83,42.09,42.09,0,0,1-8.79-10.91,50.76,50.76,0,0,1-4.65-11,60.63,60.63,0,0,1-2.33-11.82,74.84,74.84,0,0,1,2.84-28,103.82,103.82,0,0,1,11.37-26,54.91,54.91,0,0,1,10.21-11.82,47.75,47.75,0,0,1,13.31-8.31,35.83,35.83,0,0,1,15-2.73,29.15,29.15,0,0,1,15,4.93A20.85,20.85,0,0,1,764,132.4a36.41,36.41,0,0,1,2.59,13,55.39,55.39,0,0,1-5.82,25.32,12.78,12.78,0,0,1-3.75,4.8q-2.46,1.95-5,4a11.55,11.55,0,0,0-1.68,1.43,18.35,18.35,0,0,0-1.68,1.95,4.39,4.39,0,0,0-.9,2.08,2.5,2.5,0,0,0,.9,2.08,3.62,3.62,0,0,0,3.23,1,16,16,0,0,0,3.88-1,22.12,22.12,0,0,0,3.75-1.95q1.81-1.17,2.84-1.95a40.94,40.94,0,0,0,7.37-6.49,78.42,78.42,0,0,0,6.07-7.79,60.89,60.89,0,0,0,8.27-38.3,36.88,36.88,0,0,0-7-17.4q-5.69-7.66-16.8-10.52a35.76,35.76,0,0,0-10.47-1,49.43,49.43,0,0,0-10.21,1.56A105.42,105.42,0,0,0,709.09,117a96.67,96.67,0,0,0-20.29,18.57,105.43,105.43,0,0,0-15.38,24.54,99.82,99.82,0,0,0-7,22l-0.26.21a48.15,48.15,0,0,0-5.43,5.58q-2.85,3.38-5.3,6.49a21.23,21.23,0,0,0-2.71,3.9q-3.1,4.67-6.07,9.61t-6.07,9.61q-3.1,4.67-6.59,9.09a44.71,44.71,0,0,1-7.88,7.79q-1.3,1-3.88,2.86a27.77,27.77,0,0,1-5.43,3,19.4,19.4,0,0,1-5.43,1.43,4.3,4.3,0,0,1-4.14-1.82,4.7,4.7,0,0,1-.78-3.38,13.31,13.31,0,0,1,1.16-3.77,31.86,31.86,0,0,1,2.07-3.77q1.16-1.81,1.94-2.86,3.1-4.41,6.46-9a72.72,72.72,0,0,0,5.95-9.48,29.62,29.62,0,0,0,3.23-10.13,21.65,21.65,0,0,0-1.68-10.91Q622,178,614.86,174.21a26.58,26.58,0,0,0-15.9-2.73,13.25,13.25,0,0,1,1.68-1.43q0.9-.65,1.68-1.17,4.13-3.12,7.88-6.36a91.38,91.38,0,0,1,7.88-6.1,39.53,39.53,0,0,1,7-3.9,10.84,10.84,0,0,1,7.76-.26,21.85,21.85,0,0,1,5.82,3.64,10.6,10.6,0,0,0,6.33,2.6,8.8,8.8,0,0,0,7.37-2.47,30.13,30.13,0,0,0,5.3-6.36,34.17,34.17,0,0,0,3-6.75,16.16,16.16,0,0,0,.78-6.88,8.72,8.72,0,0,0-2.71-5.45q-2.33-2.2-7-2.73a22.39,22.39,0,0,0-9.56,1,40.23,40.23,0,0,0-8.92,4.28,91.06,91.06,0,0,0-8.27,6q-4,3.25-7.37,6.36-3.36,2.86-6.72,5.45l-6.72,5.19q-2.07,1.56-3.88,3t-3.88,3q-1.3,1-2.2,1.82c-0.61.52-1.34,1.13-2.2,1.82a52.8,52.8,0,0,1-4.27,3.38,32.75,32.75,0,0,0-4.27,3.64,19.39,19.39,0,0,0,4.39-7,43.45,43.45,0,0,1,3.62-7.53q2.33-3.9,4.65-7.53t4.65-7.53q6.46-11.16,13.05-22.07t13.31-22.33q3.36-5.71,7-11.3t7-11.56l7.76-13.5a39.52,39.52,0,0,0,4.91-14.8q0.25-1.56.52-3a3.67,3.67,0,0,0-1-3,4.09,4.09,0,0,0-3.1-1.43,25.75,25.75,0,0,0-4.39.13,38.42,38.42,0,0,0-4.52.78q-2.2.52-3.49,0.78a17.35,17.35,0,0,1-4.27.52q-2.2,0-4.39.13a11.28,11.28,0,0,0-4.14,1,10.45,10.45,0,0,0-3.49,2.73,14.88,14.88,0,0,0-2.84,7.14,28.82,28.82,0,0,1-2.07,7.66,33.81,33.81,0,0,1-4.14,7.79q-2.59,3.64-4.91,7.27Q601.54,85,596.38,94.1t-10.6,18.18q-2.59,4.42-5.17,9.09l-5.17,9.35q-9.31,16.36-19.26,32.2t-19.26,32.2Q532.52,202.9,528,211t-9.44,15.58q-3.36,5.2-6.85,10.39t-6.59,10.65q-0.78,1.3-1.81,3.38a16.12,16.12,0,0,0-1.42,4,5.48,5.48,0,0,0,.26,3.38q0.64,1.43,3.49,1.69a22.05,22.05,0,0,0,3.62.39q2.58,0.13,5,.13h6.85l3.36-.52a20.25,20.25,0,0,0,4.91-.52,7.7,7.7,0,0,0,3.88-2.6,47,47,0,0,0,6.59-9.74q2.71-5.32,5.56-10.26,3.1-5.19,6.33-10.52t6.07-10.52q3.62-6.75,7.11-13.63a48.46,48.46,0,0,1,8.92-12.33,34.22,34.22,0,0,1,14.48-7.53,26.45,26.45,0,0,1,3.75-.78,3.65,3.65,0,0,1,3.23,1,5,5,0,0,1,1.16,2.34,21.8,21.8,0,0,0,.9,2.86,14.56,14.56,0,0,1,.52,9.35,38.17,38.17,0,0,1-3.88,9.09,69.4,69.4,0,0,1-5.95,8.57q-3.36,4.16-5.95,7.53a51.64,51.64,0,0,0-5,8.57,29.57,29.57,0,0,0-2.71,9.48,20,20,0,0,0,1,9.09q1.55,4.28,6.72,7.4A19.2,19.2,0,0,0,592.63,260a31.26,31.26,0,0,0,10.86-1.95,52.53,52.53,0,0,0,10.34-5.19,77,77,0,0,0,8.92-6.62,174.18,174.18,0,0,0,27.4-28.82q3.88-5.19,7.37-10.39a97.29,97.29,0,0,0,6.33-10.91c0.23-.35.6-0.92,1.07-1.68a64.11,64.11,0,0,0,2.54,20.38,65.24,65.24,0,0,0,12.15,23.37,55.94,55.94,0,0,0,21.2,15.32,68.27,68.27,0,0,0,10.08,3.38A103.53,103.53,0,0,0,721.5,259a76.34,76.34,0,0,0,10.86.78,96.86,96.86,0,0,0,22.49-2.21,125.94,125.94,0,0,0,22.75-7.14,117.68,117.68,0,0,0,20.81-11.3,84.15,84.15,0,0,0,16.93-15.19,142,142,0,0,0,14-20.51,72.48,72.48,0,0,0,8.53-23.37A85.19,85.19,0,0,0,838,149.41Zm168.16,9.87q1-3.63,2.07-7.53a63.25,63.25,0,0,0,1.55-7.79,19.37,19.37,0,0,0-.78-8.18,8.58,8.58,0,0,0-5.69-5.84,12,12,0,0,0-8.66.13,16,16,0,0,0-7.11,5.58,12,12,0,0,0-2.07,9,57.9,57.9,0,0,1,.78,9.22,25.34,25.34,0,0,1-.26,3.77,29,29,0,0,1-.78,3.51,107.13,107.13,0,0,1-8.92,24.8,201.59,201.59,0,0,1-13.31,22.72q-4.65,7-9.57,13.89a92,92,0,0,1-11.12,12.85l-4.39,3.77a39.19,39.19,0,0,1-5.69,4,20.54,20.54,0,0,1-6.2,2.47,7.61,7.61,0,0,1-5.69-.91q-3.36-1.81-3-6.36a35.4,35.4,0,0,1,2.33-9.61,81.06,81.06,0,0,1,4.39-9.61q2.45-4.54,3.49-6.62a185.77,185.77,0,0,1,16-26.88q9-12.59,17.32-26.1A60.63,60.63,0,0,0,964.1,154a34.12,34.12,0,0,0,2.59-6.49,16.64,16.64,0,0,0,.52-6.49,8.76,8.76,0,0,0-3-5.58,12.22,12.22,0,0,0-5.69-2.6,16.71,16.71,0,0,0-6.2.13A24.42,24.42,0,0,0,946.4,135a48,48,0,0,0-5.17,3,35.19,35.19,0,0,0-10.08,11.94q-3.62,7-7,14a177.35,177.35,0,0,1-16.29,28.17q-9.31,13.12-18.87,26.36-4.14,5.45-8.53,11.17A38,38,0,0,1,870.14,239a10.6,10.6,0,0,1-7.37,1.82q-3.75-.52-3.23-6a28.45,28.45,0,0,1,4.39-14q4.13-6.75,8-12.46,4.91-7.53,10.08-14.41t10.08-14.41q4.39-7,8.4-14.28a107.91,107.91,0,0,0,6.85-15.06,31,31,0,0,0,1.42-4.28,19.5,19.5,0,0,0,.65-4.93,10.38,10.38,0,0,0-.9-4.41,7.34,7.34,0,0,0-3.23-3.25,16.25,16.25,0,0,0-9.56-1.3,27.82,27.82,0,0,0-9,2.86,22.28,22.28,0,0,0-8.53,7.66,103,103,0,0,0-5.69,10l-7.24,15.58A128,128,0,0,1,857,183.17a164.29,164.29,0,0,1-9.44,13.5q-5,6.49-9.44,13.24a59.1,59.1,0,0,0-6.07,13,45.84,45.84,0,0,0-2.2,14.28,31.65,31.65,0,0,0,2.07,12.46,14.9,14.9,0,0,0,8.27,8.83,0.73,0.73,0,0,0,.52.26,0.76,0.76,0,0,1,.52.26,22.14,22.14,0,0,0,15.25-.78,61,61,0,0,0,13.7-7.53,73.23,73.23,0,0,0,11.76-11.3q5-6.1,9.69-12.85-0.52,4.94-.65,9.87a34.92,34.92,0,0,0,1.16,9.87q2.07,8.05,8.53,11.56a26.19,26.19,0,0,0,14.48,3,36.44,36.44,0,0,0,10.47-2.6,67.68,67.68,0,0,0,9.69-4.93A135.83,135.83,0,0,0,959.19,233a278.77,278.77,0,0,0,20.29-24.15,172.57,172.57,0,0,0,15.64-23.63A137.44,137.44,0,0,0,1006.11,159.28Zm63.34-64.4a13.73,13.73,0,0,0,5.69,1.43,14.29,14.29,0,0,0,6.2-1.17,19,19,0,0,0,5.82-3.9,21.4,21.4,0,0,0,4.39-6,25.83,25.83,0,0,0,2.33-7,17.46,17.46,0,0,0-.13-7q-2.59-8.31-11.12-8.31a15.06,15.06,0,0,0-9.82,3.38,26.85,26.85,0,0,0-6.46,6.75,21.84,21.84,0,0,0-3.62,8.31,12.3,12.3,0,0,0,1.16,8.18A12.71,12.71,0,0,0,1069.45,94.88ZM1385.6,183.3a3.62,3.62,0,0,0-1.81-2.08,2.72,2.72,0,0,0-2.84.39,10.34,10.34,0,0,0-3,3.51,29.31,29.31,0,0,1-2.71,4q-2.85,4.42-5.82,8.44t-6.08,7.92a175.24,175.24,0,0,1-21.71,23.37q-2.85,2.34-5.95,4.67t-5.95,4.41a40.68,40.68,0,0,1-6.33,3.77,8.83,8.83,0,0,1-7.11.39,19,19,0,0,1,1.68-9.74,57.45,57.45,0,0,1,4.78-9q2.84-4.41,5.82-8.7t5.82-8.7q3.62-6,7.11-11.56t7.11-11.56q2.58-4.93,6.2-11a66.4,66.4,0,0,0,5.82-12.59,35.46,35.46,0,0,0,1.94-12.85,18.55,18.55,0,0,0-5.17-11.82,13.2,13.2,0,0,0-7.76-4.15,32,32,0,0,0-9-.26q-3.1.52-6.33,0.91a20.42,20.42,0,0,0-6.07,1.69,54.1,54.1,0,0,0-9.18,4.67q-4.53,2.86-8.66,6a19.39,19.39,0,0,0-1.55,1.17,9.29,9.29,0,0,1-1.81,1.17l-1,1a8.37,8.37,0,0,1-1.29,1,1.5,1.5,0,0,1,.52-1,144.13,144.13,0,0,1,8.53-13.76q1.29-2.34,2.46-4.67a29,29,0,0,1,2.71-4.41q4.91-8.31,9.82-16l10.08-15.71q2.33-3.63,4.39-7.66a62.39,62.39,0,0,1,4.65-7.66,137.7,137.7,0,0,0,8.53-14.8q2.07-4.41,4.39-9.48a14.13,14.13,0,0,0,.78-10.26,3.31,3.31,0,0,0-.78-1.3,3.52,3.52,0,0,0-2.33-.52,51.87,51.87,0,0,0-5.3.39q-3.49.39-9.44,1.17-2.07.26-4.52,0.39c-1.64.09-3,.13-4,0.13q-4.4,0-5.3.65t-1.42,3.51a48.84,48.84,0,0,1-1.29,5.06A34.76,34.76,0,0,1,1325.1,57a122.49,122.49,0,0,1-8.27,15.32q-8,13.51-16.16,26.88t-16.16,27.14q-5.17,8.83-10.21,17.4t-10.21,16.88q-2.59,4.42-4.91,8.44c-1.2,2.09-2.48,4.2-3.78,6.34a2.76,2.76,0,0,0-2.42.29,7.08,7.08,0,0,0-3.88,4q-1,2.73-2.33,5.32a82.48,82.48,0,0,1-8.14,10.78L1229.46,206q-2.33,2.6-4.78,5.06t-4.78,5.06q-2.07,2.08-4.27,4.15t-4.27,4.15q-2.85,2.34-5.56,4.67t-5.56,4.41a50.58,50.58,0,0,1-9,5.06,48.46,48.46,0,0,1-11.89,3.77,20,20,0,0,1-10.73-.78q-4.79-1.81-5.56-8.83a25.7,25.7,0,0,1,1.55-13.5,136.82,136.82,0,0,1,5.69-12.46q7-12.72,14.74-25.06a182.63,182.63,0,0,1,17.32-23.24q1.81-2.08,5-6.1a46.32,46.32,0,0,1,7.11-7.14,21.11,21.11,0,0,1,7.88-4.15q4-1,7.11,2.86a15.33,15.33,0,0,1,2.71,7.27,44.54,44.54,0,0,1,.13,7.53,17.84,17.84,0,0,1-.26,2.86,9.38,9.38,0,0,0,0,3.12,7,7,0,0,0,.9,2.6,2.66,2.66,0,0,0,2.46,1,5.65,5.65,0,0,0,5.56-2.86q1.94-3.12,3.75-5.71,2.33-3.63,4.91-7.14a21.47,21.47,0,0,0,3.62-7.92,8.48,8.48,0,0,0,0-4.15,23.51,23.51,0,0,0-1.55-3.9,8.24,8.24,0,0,0-3-3,17.19,17.19,0,0,0-4.27-1.82,29.64,29.64,0,0,0-4.78-.91q-2.46-.26-4.27-0.52a72.16,72.16,0,0,0-21.71,2.86,74.69,74.69,0,0,0-11.89,4.93A106.79,106.79,0,0,0,1181.64,152a233,233,0,0,0-17.58,16.88q-2.58,2.76-5,5.65a30.51,30.51,0,0,0-3.32,3,70.69,70.69,0,0,0-4.78,5.58q-2.2,2.86-3,3.64-5.69,7-11,14.15t-11,14.15q-4.65,6-9.69,11.82a41.49,41.49,0,0,1-11.76,9.48,18.45,18.45,0,0,1-7.24,2.34,8.19,8.19,0,0,1-9-6,12.6,12.6,0,0,1,.26-7.53,41.76,41.76,0,0,1,4.14-10.91q2.84-5.19,6.2-10.13Q1112.1,185,1124,165.51t24-39.21a41,41,0,0,1,5.69-7.66,11.25,11.25,0,0,1,8.53-3.25,40.7,40.7,0,0,1,8.4.39,12.35,12.35,0,0,0,8.14-1.43,8.2,8.2,0,0,0,3.1-4.15q1.29-3.12-.52-4.67a7.45,7.45,0,0,0-3.75-1.17,42.35,42.35,0,0,0-4.65,0l-4.78.26a10.39,10.39,0,0,1-3.88-.39,43,43,0,0,1,7-13.89,139.13,139.13,0,0,0,8.53-12.85q3.36-5.71,6.85-11.17a53.86,53.86,0,0,0,5.56-11.43q1-2.59,2.2-5.84a7.21,7.21,0,0,0-.13-5.84,6.25,6.25,0,0,0-5.95-3.51,54.06,54.06,0,0,0-7,.65,20.13,20.13,0,0,1-5.69.26q-3.1-.26-6.2-0.26a33.16,33.16,0,0,0-5.95.52,11.46,11.46,0,0,0-4.91,2.08,11.93,11.93,0,0,0-3,4,46.46,46.46,0,0,0-2.07,5.19q-0.91,2.73-1.68,5.45t-1.55,4.8q-2.33,5.45-5,10.65t-5.56,10.39q-1.55,2.86-3.36,6.1a48.55,48.55,0,0,1-4.14,6.23,26,26,0,0,1-5.17,5.06,14.17,14.17,0,0,1-6.46,2.6,18.27,18.27,0,0,1-4.78-.13,34.35,34.35,0,0,0-5.95-.26,15.68,15.68,0,0,0-5.43,1.17,4.86,4.86,0,0,0-3,3.9q-0.52,3.12,1.55,4.15a12,12,0,0,0,4.91,1.17l5.95,0.26a7.66,7.66,0,0,1,4.65,1.43,5.19,5.19,0,0,0-2.71,2.86q-0.91,2.08-1.68,3.64a59.81,59.81,0,0,1-6.2,8.83q-12.41,16.88-23.65,34.8c-2.67,4.26-5.26,8.55-7.81,12.85a2.3,2.3,0,0,0-.84-0.64,4.21,4.21,0,0,0-4.65.78,16.31,16.31,0,0,0-3.62,4.8q-1.55,3-2.84,6.1t-2.07,4.67q-5.17,8.31-11,16.1A186.77,186.77,0,0,1,1038.94,225q-2.07,2.34-4.65,5.32a56.53,56.53,0,0,1-5.56,5.58,31.83,31.83,0,0,1-6.2,4.28,12,12,0,0,1-6.59,1.43q-3.1,0-4-2.08a8.92,8.92,0,0,1-.26-5.32,29.67,29.67,0,0,1,2.46-7q1.81-3.76,3.75-7.27t3.62-6.23q1.68-2.73,2.2-3.77,7-12.2,14.22-23.89t14.74-23.37q1.55-2.59,3.88-5.84t4.27-6.49a34,34,0,0,0,3.1-6.75,17.51,17.51,0,0,0,.9-6.88,5.09,5.09,0,0,0-1.81-3.77,8.56,8.56,0,0,0-3.62-1.56,18.29,18.29,0,0,0-4.39-.26c-1.55.09-2.93,0.22-4.14,0.39q-3.62.26-9.44,0.78t-8.66,3.38a6.19,6.19,0,0,0-1.68,3.25c-0.26,1.3-.48,2.56-0.65,3.77a23.6,23.6,0,0,1-3.23,10q-2.71,4.55-5.56,9-6.73,11.43-14,22.2a253,253,0,0,0-13.44,22.46q-3.62,6.76-6.85,14a54.42,54.42,0,0,0-4.27,15.06,40.68,40.68,0,0,0,.52,9,21.93,21.93,0,0,0,3.1,8.44,16.4,16.4,0,0,0,7.76,6.23,18.25,18.25,0,0,0,11.37,0,45.62,45.62,0,0,0,12-5.58,103.11,103.11,0,0,0,11-8.18q5.17-4.41,8.27-7.53,1.29-1.3,5.3-6t9.18-11c2.12-2.61,4.26-5.35,6.41-8.19q-0.37.9-.73,1.83a60.07,60.07,0,0,0-3.75,14.8,40.18,40.18,0,0,0,.78,14.41,20.24,20.24,0,0,0,7.88,11.56,21.12,21.12,0,0,0,7.24,3.9,26.66,26.66,0,0,0,17.58.26,57.15,57.15,0,0,0,16.29-8.7,102.86,102.86,0,0,0,14.35-13.11q6.59-7.27,12-13,3.49-3.66,6.92-7.38c-0.51,1.94-.93,3.8-1.24,5.56a57.76,57.76,0,0,0-.78,12.2,31.91,31.91,0,0,0,2.84,11.94,20.31,20.31,0,0,0,8.66,9.22,32.88,32.88,0,0,0,12,4h10.34a33.76,33.76,0,0,0,7.63-1.82q3.49-1.3,7.11-2.86a27.56,27.56,0,0,0,6.72-3.51q3.1-2.2,6.2-4.54A233.92,233.92,0,0,0,1215.89,230q8-7.86,15.79-15.82-6,9.66-12,19.33-2.84,4.42-5.3,9.09t-5,9.35a7.92,7.92,0,0,0-1.16,4.67q0.13,2.6,1.42,3.12a25.39,25.39,0,0,0,6.2.78q3.88,0.26,7.76.13t7.76-.65q1.29-.26,2.84-0.52a13.39,13.39,0,0,0,2.84-.78,0.88,0.88,0,0,0,.52-0.39A0.9,0.9,0,0,1,1238,258l1.16-1.17,1.16-1.17a25.22,25.22,0,0,0,3.88-7.14,43.43,43.43,0,0,1,3.36-7.4q1.55-2.85,3.23-5.58t3.49-5.58q5.94-9.87,12.28-19.35t12.54-19.35a38.33,38.33,0,0,1,3.36-5.19q1.81-2.34,3.62-4.93,5.17-7,10.47-13.76a68.36,68.36,0,0,1,12-11.94q1.29-1,4.52-3.25a48.67,48.67,0,0,1,6.85-3.9,20.07,20.07,0,0,1,6.72-1.95,4.08,4.08,0,0,1,4.39,2.86,10.89,10.89,0,0,1-.52,9.22q-2.33,4.81-4.14,8.44A202.21,202.21,0,0,1,1314,186.67q-6.73,9.48-12.67,19.61-2.85,5.2-7.5,12.46a78.13,78.13,0,0,0-7.5,14.93,28.61,28.61,0,0,0-1.81,14.41q1,6.76,9.57,10.91a17.32,17.32,0,0,0,2.33.78l2.07,0.52a24.89,24.89,0,0,0,10.73.26,40.55,40.55,0,0,0,10-3.12,79.2,79.2,0,0,0,16.8-11.69q7.76-7,14.74-14c0.69-.69,1.29-1.34,1.81-1.95s1.12-1.34,1.81-2.21q3.36-3.63,6.46-7.4t6.46-7.4q1.55-1.81,4.52-6t5.82-8.18q2.84-4,7-10.52a2.16,2.16,0,0,0,1.42-1.95A6.61,6.61,0,0,0,1385.6,183.3Z" transform="translate(0.01 -0.01)"/></g></g></svg>